<svg version="1.1" id="Layer_1" xmlns="http://www.w3.org/2000/svg" xmlns:xlink="http://www.w3.org/1999/xlink" x="0px" y="0px"
	 width="100%" viewBox="0 0 426 400" enable-background="new 0 0 426 400" xml:space="preserve">
<path fill="#0D2B4F" opacity="1.000000" stroke="none" 
	d="
M286.000000,401.000000 
	C190.695358,401.000000 95.890732,401.000000 1.043047,401.000000 
	C1.043047,267.735718 1.043047,134.471436 1.043047,1.103569 
	C142.887909,1.103569 284.775940,1.103569 426.831970,1.103569 
	C426.831970,134.333160 426.831970,267.666565 426.831970,401.000000 
	C380.138153,401.000000 333.319092,401.000000 286.000000,401.000000 
M380.860229,45.056583 
	C382.225098,46.007175 383.501526,47.131817 384.970215,47.878113 
	C391.193787,51.040554 397.274384,50.613285 402.826019,46.404266 
	C408.582520,42.039894 410.640106,36.055573 408.807678,29.112135 
	C407.034424,22.392925 402.453674,18.258694 395.554169,17.079802 
	C385.250244,15.319201 378.058685,21.572706 375.215057,34.155910 
	C368.764221,39.581333 361.525787,44.314793 356.025482,50.575310 
	C344.344330,63.870857 337.995819,80.223251 334.183929,97.186661 
	C329.079315,119.902702 325.423676,142.941422 320.961365,165.805573 
	C316.787598,187.191208 312.830322,208.636536 307.881958,229.846588 
	C305.190186,241.384262 299.965210,252.160202 291.466644,260.861053 
	C276.797882,275.878967 258.055908,275.267944 244.564133,259.336304 
	C242.205948,256.551666 239.909088,253.591125 238.237503,250.372406 
	C233.333221,240.928986 228.451584,231.451126 224.124603,221.735779 
	C217.218277,206.229050 211.068390,190.382111 204.023346,174.941528 
	C198.753220,163.390991 192.187302,152.507294 182.156021,144.269730 
	C172.525467,136.361221 161.646210,133.801590 149.430603,136.813919 
	C133.320984,140.786453 122.368080,151.306625 113.813972,164.756561 
	C101.048645,184.827942 94.548637,207.424210 87.950348,229.971909 
	C79.633362,258.392761 72.150650,287.103882 62.569305,315.094574 
	C54.412094,338.924835 43.051498,361.282990 18.491526,373.295410 
	C16.915316,374.066345 15.695977,378.635437 16.525761,380.390137 
	C17.348131,382.129181 20.905699,382.884247 23.401405,383.387146 
	C24.584585,383.625580 26.117016,382.325317 27.443129,381.630341 
	C43.935253,372.987427 54.668045,358.980316 63.156879,342.973267 
	C75.819328,319.096191 82.561981,293.121643 90.045494,267.371399 
	C97.563278,241.503265 105.325829,215.681915 113.972771,190.176239 
	C118.476189,176.892609 125.814354,164.760559 137.093613,155.727478 
	C153.495621,142.591782 170.384491,144.468307 182.332916,161.707016 
	C188.824417,171.072723 194.048172,181.448700 198.838730,191.832657 
	C207.201935,209.960541 214.555450,228.552841 222.829071,246.724243 
	C225.699783,253.029221 229.620163,258.981018 233.789886,264.548279 
	C252.147400,289.058533 282.163208,289.876526 302.159973,266.595428 
	C311.147736,256.131470 317.054626,243.848694 319.886719,230.604233 
	C325.519775,204.260666 330.306366,177.727890 335.017059,151.197708 
	C339.267822,127.257874 342.766602,103.157639 352.013794,80.451324 
	C357.960297,65.849831 366.068695,52.830044 380.860229,45.056583 
z"/>
<path fill="#F6F7F9" opacity="1.000000" stroke="none" 
	d="
M380.212677,44.622883 
	C366.068695,52.830044 357.960297,65.849831 352.013794,80.451324 
	C342.766602,103.157639 339.267822,127.257874 335.017059,151.197708 
	C330.306366,177.727890 325.519775,204.260666 319.886719,230.604233 
	C317.054626,243.848694 311.147736,256.131470 302.159973,266.595428 
	C282.163208,289.876526 252.147400,289.058533 233.789886,264.548279 
	C229.620163,258.981018 225.699783,253.029221 222.829071,246.724243 
	C214.555450,228.552841 207.201935,209.960541 198.838730,191.832657 
	C194.048172,181.448700 188.824417,171.072723 182.332916,161.707016 
	C170.384491,144.468307 153.495621,142.591782 137.093613,155.727478 
	C125.814354,164.760559 118.476189,176.892609 113.972771,190.176239 
	C105.325829,215.681915 97.563278,241.503265 90.045494,267.371399 
	C82.561981,293.121643 75.819328,319.096191 63.156879,342.973267 
	C54.668045,358.980316 43.935253,372.987427 27.443129,381.630341 
	C26.117016,382.325317 24.584585,383.625580 23.401405,383.387146 
	C20.905699,382.884247 17.348131,382.129181 16.525761,380.390137 
	C15.695977,378.635437 16.915316,374.066345 18.491526,373.295410 
	C43.051498,361.282990 54.412094,338.924835 62.569305,315.094574 
	C72.150650,287.103882 79.633362,258.392761 87.950348,229.971909 
	C94.548637,207.424210 101.048645,184.827942 113.813972,164.756561 
	C122.368080,151.306625 133.320984,140.786453 149.430603,136.813919 
	C161.646210,133.801590 172.525467,136.361221 182.156021,144.269730 
	C192.187302,152.507294 198.753220,163.390991 204.023346,174.941528 
	C211.068390,190.382111 217.218277,206.229050 224.124603,221.735779 
	C228.451584,231.451126 233.333221,240.928986 238.237503,250.372406 
	C239.909088,253.591125 242.205948,256.551666 244.564133,259.336304 
	C258.055908,275.267944 276.797882,275.878967 291.466644,260.861053 
	C299.965210,252.160202 305.190186,241.384262 307.881958,229.846588 
	C312.830322,208.636536 316.787598,187.191208 320.961365,165.805573 
	C325.423676,142.941422 329.079315,119.902702 334.183929,97.186661 
	C337.995819,80.223251 344.344330,63.870857 356.025482,50.575310 
	C361.525787,44.314793 368.764221,39.581333 375.696899,34.417702 
	C377.523376,37.993954 378.868011,41.308418 380.212677,44.622883 
z"/>
<path fill="#EB5A1D" opacity="1.000000" stroke="none" 
	d="
M380.536438,44.839733 
	C378.868011,41.308418 377.523376,37.993954 376.033691,34.330025 
	C378.058685,21.572706 385.250244,15.319201 395.554169,17.079802 
	C402.453674,18.258694 407.034424,22.392925 408.807678,29.112135 
	C410.640106,36.055573 408.582520,42.039894 402.826019,46.404266 
	C397.274384,50.613285 391.193787,51.040554 384.970215,47.878113 
	C383.501526,47.131817 382.225098,46.007175 380.536438,44.839733 
z"/>
</svg>